<?xml version="1.0" encoding="UTF-8" standalone="no"?>
<!-- Created by diasvg.py -->
<svg width="41.200cm" height="23.173cm" viewBox="-1.100 -3.123 41.200 23.173"
 xmlns="http://www.w3.org/2000/svg"
 xmlns:xlink="http://www.w3.org/1999/xlink">
<!-- Layer: Background -->
<g id="Background">
<!-- Network - Cloud -->
<path stroke="#000000" fill="#FFFFFF" stroke-width="0.100"  d="M 8.031,1.188 C 4.677,1.132 -1.827,2.289 -0.913,4.768 C 0.002,7.247 4.372,7.797 6.201,7.081 C 8.031,6.365 3.356,10.551 12.299,11.653 C 21.242,12.755 25.816,10.992 24.494,9.725 C 23.173,8.458 32.320,12.700 36.588,10.276 C 40.857,7.852 32.218,5.539 34.048,5.869 C 35.877,6.200 41.466,5.759 39.637,1.628 C 37.808,-2.503 21.344,0.692 23.173,0.086 C 25.003,-0.520 20.429,-3.549 14.738,-2.944 C 9.047,-2.338 8.643,-1.238 8.033,1.185 L 8.031,1.188 z"/>
<!-- Standard - Box -->
<rect x="5.000" y="13.000" width="25.000" height="6.000" fill="none" stroke="#000000" stroke-width="0.100"  rx="0.000" />
<!-- Standard - Box -->
<rect x="4.000" y="7.731" width="28.000" height="12.269" fill="none" stroke="#000000" stroke-width="0.100" stroke-dasharray="0.10,0.10" rx="0.000" />
<!-- Flowchart - Box -->
<rect x="10.000" y="0.000" width="7.000" height="3.000" fill="#FFFFFF" stroke="#000000" stroke-width="0.100"  rx="0.000" />
<text x="13.500" y="1.295"  fill="#000000" text-anchor="middle" font-size="0.80" font-family="sans" font-style="normal" font-weight="400">
GG cloud server</text>
<text x="13.500" y="2.095"  fill="#000000" text-anchor="middle" font-size="0.80" font-family="sans" font-style="normal" font-weight="400">
(User &apos;foo&apos;)</text>
<!-- Flowchart - Box -->
<rect x="24.000" y="2.000" width="7.000" height="3.000" fill="#FFFFFF" stroke="#000000" stroke-width="0.100"  rx="0.000" />
<text x="27.500" y="3.295"  fill="#000000" text-anchor="middle" font-size="0.80" font-family="sans" font-style="normal" font-weight="400">
GG cloud server</text>
<text x="27.500" y="4.095"  fill="#000000" text-anchor="middle" font-size="0.80" font-family="sans" font-style="normal" font-weight="400">
(User &apos;bar&apos;)</text>
<!-- Flowchart - Box -->
<rect x="17.000" y="8.000" width="4.027" height="3.000" fill="#FFFFFF" stroke="#000000" stroke-width="0.100"  rx="0.000" />
<text x="19.014" y="9.295"  fill="#000000" text-anchor="middle" font-size="0.80" font-family="sans" font-style="normal" font-weight="400">
GG cloud</text>
<text x="19.014" y="10.095"  fill="#000000" text-anchor="middle" font-size="0.80" font-family="sans" font-style="normal" font-weight="400">
(Me)</text>
<!-- Flowchart - Box -->
<rect x="7.000" y="15.000" width="5.430" height="1.900" fill="#FFFFFF" stroke="#000000" stroke-width="0.100"  rx="0.000" />
<text x="9.715" y="16.145"  fill="#000000" text-anchor="middle" font-size="0.80" font-family="sans" font-style="normal" font-weight="400">
GG local repo</text>
<!-- Flowchart - Box -->
<rect x="25.000" y="14.000" width="3.695" height="1.900" fill="#FFFFFF" stroke="#000000" stroke-width="0.100"  rx="0.000" />
<text x="26.848" y="15.145"  fill="#000000" text-anchor="middle" font-size="0.80" font-family="sans" font-style="normal" font-weight="400">
Browser</text>
<!-- Standard - Arc -->
<path stroke="#000000" fill="none" stroke-width="0.100"  d ="M 16.541,8.595 A 4.954,4.954 0 0,1 13.500,3.000 "/>
<polygon fill="#000000" stroke="#000000" stroke-width="0.100"  points="16.892,8.719 16.343,8.823 16.532,8.617 16.480,8.342 "/>
<!-- Standard - Arc -->
<path stroke="#000000" fill="none" stroke-width="0.100"  d ="M 21.027,8.750 A 5.991,5.991 0 0,0 27.306,5.445 "/>
<polygon fill="#000000" stroke="#000000" stroke-width="0.100"  points="27.459,5.104 27.511,5.661 27.323,5.454 27.045,5.479 "/>
<!-- Standard - Arc -->
<path stroke="#000000" fill="none" stroke-width="0.100"  d ="M 11.650,3.475 A 5.828,5.828 0 0,0 17.000,10.250 "/>
<polygon fill="#000000" stroke="#000000" stroke-width="0.100"  points="11.722,3.108 11.842,3.655 11.630,3.472 11.357,3.531 "/>
<!-- Standard - Arc -->
<path stroke="#000000" fill="none" stroke-width="0.100"  d ="M 25.000,14.950 A 3.686,3.686 0 0,1 19.985,11.482 "/>
<polygon fill="#000000" stroke="#000000" stroke-width="0.100"  points="20.005,11.111 20.183,11.641 19.953,11.482 19.688,11.571 "/>
<!-- Standard - Arc -->
<path stroke="#000000" fill="none" stroke-width="0.100"  d ="M 12.430,15.950 A 7.451,7.451 0 0,0 17.839,11.456 "/>
<polygon fill="#000000" stroke="#000000" stroke-width="0.100"  points="17.972,11.106 18.051,11.659 17.853,11.462 17.577,11.502 "/>
<!-- Standard - Text -->
<!-- Standard - Text -->
<text x="8.152" y="5.000"  fill="#000000" text-anchor="start" font-size="0.80" font-family="sans" font-style="normal" font-weight="400">
(1) Follow</text>
<text x="8.152" y="5.800"  fill="#000000" text-anchor="start" font-size="0.80" font-family="sans" font-style="normal" font-weight="400">
request</text>
<!-- Standard - Text -->
<text x="14.000" y="5.000"  fill="#000000" text-anchor="start" font-size="0.80" font-family="sans" font-style="normal" font-weight="400">
(2) Key</text>
<text x="14.000" y="5.800"  fill="#000000" text-anchor="start" font-size="0.80" font-family="sans" font-style="normal" font-weight="400">
Lookup</text>
<!-- Standard - Arc -->
<path stroke="#000000" fill="none" stroke-width="0.100"  d ="M 14.578,3.050 A 3.986,3.986 0 0,1 18.098,7.525 "/>
<polygon fill="#000000" stroke="#000000" stroke-width="0.100"  points="18.035,7.892 17.916,7.345 18.127,7.528 18.401,7.469 "/>
<!-- Standard - Text -->
<!-- Standard - Text -->
<text x="17.800" y="4.400"  fill="#000000" text-anchor="start" font-size="0.80" font-family="sans" font-style="normal" font-weight="400">
(3) Ping back</text>
<!-- Standard - Text -->
<text x="27.113" y="7.272"  fill="#000000" text-anchor="start" font-size="0.80" font-family="sans" font-style="normal" font-weight="400">
(4) Comment</text>
<!-- Standard - Arc -->
<path stroke="#000000" fill="none" stroke-width="0.100"  d ="M 25.750,2.000 A 1.391,1.391 0 1,0 23.578,3.303 "/>
<polygon fill="#000000" stroke="#000000" stroke-width="0.100"  points="23.892,3.470 23.344,3.579 23.531,3.371 23.476,3.097 "/>
<!-- Standard - Text -->
<text x="4.929" y="8.742"  fill="#000000" text-anchor="start" font-size="0.80" font-family="sans" font-style="normal" font-weight="400">
Me</text>
<!-- Standard - Text -->
<!-- Standard - Text -->
<text x="14.000" y="-2.000"  fill="#000000" text-anchor="start" font-size="0.80" font-family="sans" font-style="normal" font-weight="400">
The Cloud</text>
<!-- Standard - Text -->
<text x="6.000" y="14.000"  fill="#000000" text-anchor="start" font-size="0.80" font-family="sans" font-style="normal" font-weight="400">
My workstation</text>
<!-- Standard - Text -->
<!-- Standard - Text -->
<text x="19.819" y="1.284"  fill="#000000" text-anchor="start" font-size="0.80" font-family="sans" font-style="normal" font-weight="400">
(5) Check</text>
<text x="19.819" y="2.084"  fill="#000000" text-anchor="start" font-size="0.80" font-family="sans" font-style="normal" font-weight="400">
signature</text>
<!-- Standard - Text -->
<text x="18.829" y="15.193"  fill="#000000" text-anchor="start" font-size="0.80" font-family="sans" font-style="normal" font-weight="400">
Private</text>
<!-- Standard - Text -->
<text x="17.843" y="15.961"  fill="#000000" text-anchor="start" font-size="0.60" font-family="sans" font-style="normal" font-weight="400">
(personnal view of</text>
<text x="17.843" y="16.564"  fill="#000000" text-anchor="start" font-size="0.60" font-family="sans" font-style="normal" font-weight="400">
feeds being followed)</text>
</g>
</svg>